<?xml version="1.0" encoding="UTF-8" standalone="no"?>
<!DOCTYPE svg PUBLIC "-//W3C//DTD SVG 1.1//EN" "http://www.w3.org/Graphics/SVG/1.1/DTD/svg11.dtd">
<svg width="100%" height="100%" viewBox="0 0 500 500" version="1.1" xmlns="http://www.w3.org/2000/svg" xmlns:xlink="http://www.w3.org/1999/xlink" xml:space="preserve" xmlns:serif="http://www.serif.com/" style="fill-rule:evenodd;clip-rule:evenodd;stroke-linecap:round;stroke-linejoin:round;stroke-miterlimit:1.5;">
    <g id="Layer1">
        <g transform="matrix(1,0,0,1,-1.074,0.753303)">
            <path d="M120.729,47.75C120.729,47.75 99.859,2.97 73.43,12.827C58.053,18.562 -1.514,57.032 18.099,123.528C27.048,153.867 79.675,253.344 112.114,253.344C128.696,253.344 159.177,234.185 159.177,234.185M119.432,85.933C119.432,85.933 94.879,38.096 79.926,43.673C71.226,46.917 34.804,70.473 42.593,108.916C53.061,160.589 80.387,213.142 110.292,220.456C122.424,223.424 147.543,208.738 147.543,208.738M119.432,85.933L120.729,47.75M147.543,208.738L159.177,234.185" style="fill:rgb(255,202,0);stroke:rgb(179,151,42);stroke-width:4.17px;"/>
        </g>
        <g transform="matrix(1,0,0,1,-1.074,0.753303)">
            <path d="M379.271,47.75C379.271,47.75 400.141,2.97 426.57,12.827C441.947,18.562 501.514,57.032 481.901,123.528C472.952,153.867 420.325,253.344 387.886,253.344C371.304,253.344 340.823,234.185 340.823,234.185M380.568,85.933C380.568,85.933 405.121,38.096 420.074,43.673C428.774,46.917 465.196,70.473 457.407,108.916C446.939,160.589 419.613,213.142 389.708,220.456C377.576,223.424 352.457,208.738 352.457,208.738M380.568,85.933L379.271,47.75M352.457,208.738L340.823,234.185" style="fill:rgb(255,202,0);stroke:rgb(179,151,42);stroke-width:4.17px;"/>
        </g>
        <g transform="matrix(1.43615,0,0,1.43615,-35.7229,-152.504)">
            <g transform="matrix(0.696307,0,0,0.696307,72.1994,106.714)">
                <path d="M218.694,302.55C218.694,302.55 238.79,301.089 272.947,231.936C327.692,121.1 307.69,27.948 307.69,27.948L54.23,27.948C54.23,27.948 53.361,31.996 52.481,39.408C49.139,67.553 45.64,144.204 88.973,231.936C123.129,301.089 143.226,302.55 143.226,302.55L218.694,302.55" style="fill:rgb(255,202,0);stroke:rgb(162,140,57);stroke-width:4.17px;"/>
            </g>
            <path d="M224.509,317.382C224.509,317.382 220.588,341.022 235.801,362.971C242.633,372.828 241.763,368.357 242.633,381.09L153.383,381.09C154.254,368.357 153.383,372.828 160.215,362.971C175.428,341.022 171.507,317.382 171.507,317.382" style="fill:rgb(255,202,0);stroke:rgb(162,140,57);stroke-width:2.9px;"/>
            <g transform="matrix(0.696307,0,0,0.696307,24.1263,106.714)">
                <path d="M211.661,302.55L287.78,302.55" style="fill:none;stroke:rgb(162,140,57);stroke-width:4.17px;"/>
            </g>
        </g>
        <g transform="matrix(0.915905,0,0,1,58.4572,22.0879)">
            <rect x="112.785" y="371.957" width="192.689" height="89.975" style="fill:rgb(162,140,57);stroke:rgb(62,49,0);stroke-width:4.35px;"/>
        </g>
        <g transform="matrix(0.949071,0,0,1.17966,24.8947,-83.2608)">
            <text x="161.758px" y="227.686px" style="font-family:'ArialRoundedMTBold', 'Arial Rounded MT Bold', sans-serif;font-size:125px;fill:rgb(105,83,0);">1</text>
            <g transform="matrix(75,0,0,75,303.237,227.686)">
            </g>
            <text x="236.037px" y="227.686px" style="font-family:'ArialRoundedMTBold', 'Arial Rounded MT Bold', sans-serif;font-size:75px;fill:rgb(105,83,0);">st</text>
        </g>
    </g>
</svg>
