<?xml version="1.0" encoding="UTF-8" standalone="no"?>
<!DOCTYPE svg PUBLIC "-//W3C//DTD SVG 1.1//EN" "http://www.w3.org/Graphics/SVG/1.1/DTD/svg11.dtd">
<svg width="100%" height="100%" viewBox="0 0 500 500" version="1.1" xmlns="http://www.w3.org/2000/svg" xmlns:xlink="http://www.w3.org/1999/xlink" xml:space="preserve" xmlns:serif="http://www.serif.com/" style="fill-rule:evenodd;clip-rule:evenodd;stroke-linejoin:round;stroke-miterlimit:2;">
    <g transform="matrix(1.1225,0,0,1.1225,-128.558,-106.766)">
        <path d="M336.4,95.115L350.332,167.481L369.649,139.967L377.722,172.601L416.855,110.155L403.705,182.667L431.656,163.988L427.395,197.335L486.444,153.242L447.987,216.107L480.799,208.788L464.779,238.344L535.769,218.559L477.199,263.287L510.44,268.314L484.825,290.087L558.167,297.283L487.396,317.833L516.575,334.528L484.825,345.578L550.615,378.782L477.199,372.379L498.377,398.488L464.779,397.322L514.132,452.05L447.987,419.558L458.303,451.554L427.395,438.33L453.646,507.191L403.705,452.999L401.765,486.561L377.722,463.065L377.324,536.758L350.332,468.185L336.4,498.78L322.468,468.185L295.476,536.758L295.078,463.065L271.034,486.561L269.095,452.999L219.154,507.191L245.404,438.33L214.496,451.554L224.812,419.558L158.667,452.05L208.02,397.322L174.423,398.488L195.6,372.379L122.184,378.782L187.975,345.578L156.224,334.528L185.404,317.833L114.632,297.283L187.975,290.087L162.36,268.314L195.6,263.287L137.031,218.559L208.02,238.344L192.001,208.788L224.812,216.107L186.356,153.242L245.404,197.335L241.143,163.988L269.095,182.667L255.945,110.155L295.078,172.601L303.151,139.967L322.468,167.481L336.4,95.115Z" style="fill:rgb(137,206,196);"/>
    </g>
    <g transform="matrix(0.754648,0.292052,-0.292052,0.754648,88.0102,-88.0981)">
        <path d="M336.4,95.115L350.753,162.935L369.649,139.967L378.971,168.21L416.855,110.155L405.739,178.58L431.656,163.988L430.146,193.692L486.444,153.242L451.361,213.032L480.799,208.788L468.661,235.94L535.769,218.559L481.456,261.638L510.44,268.314L489.312,289.248L558.167,297.283L491.961,317.833L516.575,334.528L489.312,346.417L550.615,378.782L481.456,374.028L498.377,398.488L468.661,399.725L514.132,452.05L451.361,422.634L458.303,451.554L430.146,441.973L453.646,507.191L405.739,457.086L401.765,486.561L378.971,467.456L377.324,536.758L350.753,472.73L336.4,498.78L322.046,472.73L295.476,536.758L293.828,467.456L271.034,486.561L267.06,457.086L219.154,507.191L242.653,441.973L214.496,451.554L221.439,422.634L158.667,452.05L204.139,399.725L174.423,398.488L191.343,374.028L122.184,378.782L183.487,346.417L156.224,334.528L180.839,317.833L114.632,297.283L183.487,289.248L162.36,268.314L191.343,261.638L137.031,218.559L204.139,235.94L192.001,208.788L221.439,213.032L186.356,153.242L242.653,193.692L241.143,163.988L267.06,178.58L255.945,110.155L293.828,168.21L303.151,139.967L322.046,162.935L336.4,95.115Z" style="fill:white;"/>
    </g>
</svg>
